
<svg width="1398" height="975" viewBox="0 0 1398 975" fill="none" xmlns="http://www.w3.org/2000/svg">
<path d="M1283.32 458.06C1352.35 509.189 1397.25 591.329 1397.25 684.03C1397.25 689.44 1397.09 694.82 1396.79 700.17C1397.09 705.14 1397.25 710.14 1397.25 715.17C1397.25 847.19 1289.18 966.18 1150.61 966.18H273.583C235.687 966.18 199.875 957.12 168.062 941.41C69.224 897.98 0 799.16 0 684.03C0 565.858 72.886 464.861 176.046 423.282C212.087 318.11 311.747 242.475 429.207 242.475C465.827 242.475 500.792 249.861 532.636 263.218C584.869 110.106 729.87 0 900.69 0C1115.41 0 1289.48 174.07 1289.48 388.796C1289.48 412.395 1287.37 435.548 1283.32 458.06Z" fill="url(#paint0_linear_2401_701)"/>
<path fill-rule="evenodd" clip-rule="evenodd" d="M1283.32 466.704C1352.35 517.833 1397.25 599.973 1397.25 692.67C1397.25 698.08 1397.09 703.46 1396.79 708.81C1397.09 713.78 1397.25 718.79 1397.25 723.81C1397.25 855.84 1289.18 974.83 1150.61 974.83H273.583C235.687 974.83 199.875 965.77 168.062 950.05C69.224 906.62 0 807.8 0 692.67C0 574.502 72.886 473.505 176.046 431.926C212.087 326.755 311.747 251.119 429.207 251.119C465.827 251.119 500.792 258.505 532.636 271.862C584.869 118.75 729.87 8.64404 900.69 8.64404C1115.41 8.64404 1289.48 182.714 1289.48 397.44C1289.48 421.039 1287.37 444.192 1283.32 466.704ZM195.769 890.68C119.138 857.64 65.496 781.42 65.496 692.67C65.496 594.684 130.882 511.97 220.402 485.781C226.348 484.041 230.903 479.192 232.293 473.155C252.94 383.482 333.265 316.615 429.207 316.615C474.562 316.615 516.426 331.558 550.146 356.788C561.224 365.078 579.43 358.32 581.672 344.667C606.865 191.216 740.1 74.14 900.69 74.14C1079.24 74.14 1223.99 218.886 1223.99 397.44C1223.99 427.609 1219.85 456.814 1212.12 484.518C1210.01 492.082 1213.51 500.129 1220.38 503.93C1286.79 540.656 1331.75 611.412 1331.75 692.67C1331.75 697.75 1331.58 702.78 1331.23 707.78C1331.17 708.59 1331.18 709.41 1331.24 710.22C1331.58 714.72 1331.75 719.25 1331.75 723.81C1331.75 822.1 1250.61 909.33 1150.61 909.33H273.583C245.734 909.33 219.347 902.57 195.769 890.68Z" fill="url(#paint1_linear_2401_701)"/>
<defs>
<linearGradient id="paint0_linear_2401_701" x1="1111.98" y1="38.297" x2="1067.5" y2="749.96" gradientUnits="userSpaceOnUse">
<stop stop-color="#3167F3"/>
<stop offset="1" stop-color="#0BC4FF"/>
</linearGradient>
<linearGradient id="paint1_linear_2401_701" x1="1008.19" y1="8.64403" x2="518.922" y2="972.36" gradientUnits="userSpaceOnUse">
<stop stop-color="#0BC4FF"/>
<stop offset="1" stop-color="#0B8AFF"/>
</linearGradient>
</defs>
</svg>
